# xmcd
#
# Track frame offsets:
#	150
#	14847
#	28485
#	42502
#	56430
#	63142
#	84257
#	99057
#	109785
#	125935
#
# Disc length: 1849 seconds
#
# Revision: 0
# Processed by: cddbd v1.5.1PL0 Copyright (c) Steve Scherf et al.
# Submitted via: dBpowerAMP V4.0
#
DISCID=8407370a
DTITLE=Alkistis Protopsalti - Se erga tou Hlia Andriopoulou - CD1
DYEAR=1996
DGENRE=Acoustic
TTITLE0=Anemos tis Panagias
TTITLE1=Oneira ki oneira
TTITLE2=Poulia sta xilia xrwmata
TTITLE3=H wra ksexastike
TTITLE4=O xronos einai grigoros
TTITLE5=Ola ta kyparissia
TTITLE6=Tin afrouriti nyxtia
TTITLE7=To stafyli auto
TTITLE8=Floisvos fili
TTITLE9=To tragoudi tou arxipelagous
EXTD=
EXTT0=
EXTT1=
EXTT2=
EXTT3=
EXTT4=
EXTT5=
EXTT6=
EXTT7=
EXTT8=
EXTT9=
PLAYORDER=
